<svg width="222" height="76" fill="none" xmlns="http://www.w3.org/2000/svg"><path fill-rule="evenodd" clip-rule="evenodd" d="M176.865 36.494c-.776.776-3.103 2.844-2.069 4.137.776 1.034 3.621-.776 4.655-2.068 1.551-1.81 2.327-4.654 2.327-4.654s-3.103 1.034-4.913 2.585zm-15.514.776c-1.81 1.551-2.845 3.361-2.069 4.137 1.034.775 3.361-.776 4.654-2.327 1.552-2.327 2.069-4.396 2.069-4.396s-1.551.518-4.654 2.586zm-21.204-13.962c4.655-2.844 16.549-14.737 13.705-17.582-3.103-1.292-11.377 11.894-13.705 17.582zM79.9 43.734c-1.81 2.585-3.879 6.722-2.328 7.756 1.552 1.293 5.69-2.327 6.982-4.137 2.586-3.102 4.396-7.498 2.844-8.273-2.327-1.293-6.206 3.102-7.498 4.654zm-36.977 6.464c5.948-1.81 15.515-3.362 18.876-3.62 2.845-4.396 11.636-19.392-1.034-24.046L42.923 50.198zm-25.34 19.391c2.844 3.361 26.375-.258 42.148-19.908-11.119 1.81-17.583 4.136-19.91 4.912-5.172 8.532-7.24 11.376-9.31 11.118-2.326-.259 1.552-4.654 3.62-9.05-8.79 2.586-19.134 9.567-16.548 12.928zm-9.05-50.16C23.53 14 40.338 10.38 57.663 12.708l1.55-3.102c3.62-.517 7.24-1.034 10.86-1.293l-4.912 7.24c4.654 2.068 8.533 6.98 9.05 12.151 0 6.981-3.103 12.67-6.723 18.1l5.171-.518c3.62-5.688 13.446-12.669 17.325-7.498l1.551-1.81s6.206-1.034 6.465-1.034c-5.689 10.6-8.792 13.445-8.016 14.479.776 1.034 11.377-8.015 15.256-15.772l6.206-.517-3.62 6.205c6.464-5.17 8.533-8.532 12.153-7.24 4.654 2.07-5.948 13.446-4.655 14.221 1.035.517 9.568-5.688 13.705-11.893l-5.947.776 2.068-3.62 5.689-.776c6.206-11.635 22.754-33.612 27.926-30.51 4.396 3.103-6.723 17.582-21.462 28.183l-.776 1.551 12.671-1.292c.258 0 .258.517 0 .775-4.138 3.361-12.153 11.894-7.758 14.738 3.62 1.293 9.568-7.498 10.085-9.05-3.362-1.034-.776-10.342 3.878-9.049 3.362 1.034.776 5.43 0 7.24 6.206-.776 11.636-6.981 11.636-6.981 0-4.913 3.103-10.084 6.723-8.791 2.327 1.293.259 4.654-3.361 8.79-.517.518-.259 2.328-.517 4.655 4.137-1.293 8.791-3.362 12.67-5.171.258-4.913 2.585-10.601 6.464-9.308 2.844.775 0 6.722-3.62 9.566 0 6.205 1.034 10.6-.517 13.703-1.81 3.879-8.274 6.981-12.153 4.913-3.879-2.327-.517-7.498 2.068-9.308 2.069-1.81 7.499-4.395 7.499-4.395s.259-2.069.259-3.103c-2.069 1.293-12.412 5.171-12.412 5.171-.517 3.62-.258 5.171-2.068 8.532-2.328 4.396-9.568 5.947-12.153 3.62-1.552-1.551-1.035-5.688 2.327-8.532 2.844-2.069 8.274-4.396 8.274-4.396s.517-2.068.517-3.102c-3.62 3.102-7.757 6.205-13.187 6.464-3.103 6.463-11.636 15.254-17.842 11.117-5.688-3.62 3.62-13.703 4.655-14.479-2.069 0-5.948 1.035-5.948 1.035l-10.343 19.133h.259s35.166-4.137 67.488-4.137l-3.879 3.62c1.81 1.292 3.62 2.585 5.689 3.62 0 0-33.615-1.552-72.142 1.55L116.1 67.78l-6.981.517 5.947-10.6s-17.325.517-55.852 5.688c.517-.776.517-.776 1.034-1.81 34.39-6.722 57.662-8.274 57.662-8.274l5.172-9.308c-3.62 2.844-10.861 9.05-13.963 5.947-2.328-2.844 5.43-11.893 4.654-12.41-.776-.776-10.085 9.049-13.446 14.22-2.069 0-5.689.517-5.689.517l2.845-5.171c-3.103 2.327-6.206 4.912-9.826 6.205-.776.517-3.103.517-4.137-2.068 0 0-6.723 6.205-11.378 3.878-2.585-1.293-1.551-5.947-1.034-6.98l-5.43.516C41.631 76.311 10.602 79.414 6.723 73.467c-3.879-6.463 10.343-15.254 29.736-21.46 0 0 17.066-31.026 16.807-31.284C29.478 17.102 0 35.46 0 35.46l8.533-16.03z" fill="#D92826"/></svg>