<svg width="265" height="76" fill="none" xmlns="http://www.w3.org/2000/svg"><path d="M102.555 37.525V48.1L92.339 37.525h-7.576v17.52h4.94v-10.42l10.245 10.418h7.569v-17.52h-4.962zM37.337 41.01h4.038c2.233 0 3.458 1.106 3.458 2.908 0 2.406-1.129 3.22-4.467 3.255l5.013 7.87h8.178l-5.18-7.424c.798-.103 4.228-.57 4.228-5.118 0-4.953-4.97-4.977-8.176-4.977H29.956v17.52h7.381V41.01zm34.707-3.486v9.822c0 1.657-.33 2.812-1.019 3.545a3.691 3.691 0 01-2.836.99 3.653 3.653 0 01-2.825-.99c-.697-.733-1.037-1.889-1.037-3.545v-9.822h-7.482v10.29c0 2.766.57 3.934 1.767 5.122 1.87 1.847 5.413 2.622 9.573 2.622s7.737-.775 9.603-2.622c1.203-1.188 1.743-2.356 1.743-5.122v-10.29h-7.487zm53.087 0h-12.032v17.52h12.036c8.804 0 12.895-1.872 12.895-8.803 0-6.931-4.091-8.717-12.899-8.717zm-.798 13.935h-3.805V41.104h3.805c3.978 0 5.829 1.712 5.829 5.185 0 3.32-2.015 5.172-5.829 5.172m53.491-14.458c-9.659 0-13.88 3.487-13.88 9.185 0 6.319 4.217 9.378 13.88 9.378 9.541 0 13.806-3.068 13.806-9.4 0-5.635-4.265-9.163-13.806-9.163zm-.033 15.014c-3.792 0-5.698-1.994-5.698-5.75 0-3.802 1.853-5.736 5.698-5.736 3.878 0 5.7 1.934 5.7 5.736 0 3.974-1.661 5.75-5.7 5.75zm-27.694-10.74h10.221l2.341-3.752h-20.144v17.52h7.582v-5.699h8.353l2.383-3.776h-10.736v-4.294zM17.649 46.613v4.998s-2.143.24-3.185.24c-5.864 0-6.495-3.176-6.495-5.45 0-3.59 2.34-5.505 7.05-5.505 2.336-.046 4.67.138 6.97.55l.896.175 2.36-3.81a83.165 83.165 0 00-11.327-.684C4.38 37.128 0 40.122 0 46.504c0 6.406 4.296 8.966 13.875 8.966 3.757.056 7.51-.284 11.195-1.015v-7.84h-7.42zm192.084-2.468c-3.441-.542-5.644-.525-5.644-2.154 0-1.628 3.476-1.687 5.669-1.687 1.988.059 3.968.269 5.924.627l2.161-3.418a82.69 82.69 0 00-9.866-.588c-7.916 0-12.989 1.37-12.989 5.185 0 4.046 4.308 4.79 8.568 5.479 3.344.534 5.544.625 5.544 2.203 0 1.793-2.941 2.034-5.891 2.034a36.257 36.257 0 01-6.399-.771l-2.516 3.988a75.52 75.52 0 0010.921.616c8.829 0 12.989-1.606 12.989-5.913 0-3.996-4.357-4.965-8.473-5.606m28.965 10.909h-9.466l13.204-13.132a16.67 16.67 0 012.509 2.162 18.273 18.273 0 012.26 2.514l-8.507 8.456z" fill="#113565"/><path d="M234.334 44.853c-5.014-6.066-6.408-8.716-7.683-11.873-.816-2.008-1.822-5.936.254-8.002 1.841-1.826 5.458-1.196 9.103.428 4.177 1.859 8.995 5.25 13.524 9.462L264.498 20v9.388L250.81 43.003s-1.485-1.537-2.249-2.282c-8.036-7.86-15.496-11.673-17.355-9.855-2.489 2.43 5.185 11.288 5.456 11.68l-2.328 2.307zm30.162 10.197h-5.327a25.326 25.326 0 00-2.491-4.654 27.763 27.763 0 00-3.537-4.52l3.594-3.565a55.495 55.495 0 014.413 6.005 32.767 32.767 0 013.35 6.734" fill="#113565"/></svg>